# AST/ASF file generated using VICON BodyLanguage
# -----------------------------------------------
:version 1.10
:name VICON
:units
  mass 1.0
  length 0.45
  angle deg
:documentation
   .ast/.asf automatically generated from VICON data using
   VICON BodyBuilder and BodyLanguage model FoxedUp or BRILLIANT.MOD
:root
   order TX TY TZ RX RY RZ
   axis XYZ
   position 0 0 0  
   orientation 0 0 0 
:bonedata
  begin
     id 1 
     name lhipjoint
     direction 0.690799 -0.707083 0.151096 
     length 2.54797 
     axis 0 0 0  XYZ
  end
  begin
     id 2 
     name lfemur
     direction 0.34202 -0.939693 0  
     length 7.21646  
     axis 0 0 20  XYZ
    dof rx ry rz
    limits (-160.0 20.0)
           (-70.0 70.0)
           (-60.0 70.0)
  end
  begin
     id 3 
     name ltibia
     direction 0.34202 -0.939693 0   
     length 8.16759   
     axis 0 0 20   XYZ
    dof rx
    limits (-10.0 170.0)
  end
  begin
     id 4 
     name lfoot
     direction 0.0487203 -0.133858 0.989802   
     length 1.93375   
     axis -90 7.62852e-016 20   XYZ
    dof rx rz
    limits (-45.0 90.0)
           (-70.0 20.0)
  end
  begin
     id 5 
     name ltoes
     direction 1.53453e-011 -4.21783e-011 1   
     length 0.979747   
     axis -90 7.62852e-016 20   XYZ
    dof rx
    limits (-90.0 20.0)
  end
  begin
     id 6 
     name rhipjoint
     direction -0.694693 -0.703425 0.150315   
     length 2.56122  
     axis 0 0 0  XYZ 
  end
  begin
     id 7 
     name rfemur
     direction -0.34202 -0.939693 0   
     length 7.36786   
     axis 0 0 -20   XYZ
    dof rx ry rz
    limits (-160.0 20.0)
           (-70.0 70.0)
           (-70.0 60.0)
  end
  begin
     id 8 
     name rtibia
     direction -0.34202 -0.939693 0   
     length 8.07288   
     axis 0 0 -20   XYZ
    dof rx
    limits (-10.0 170.0)
 end
 begin
     id 9 
     name rfoot
     direction -0.0428397 -0.117701 0.992125   
     length 1.88295  
     axis -90 -7.62852e-016 -20   XYZ
    dof rx rz
    limits (-45.0 90.0)
           (-20.0 70.0)
  end
  begin
     id 10 
     name rtoes
     direction -1.53456e-011 -4.2187e-011 1   
     length 0.955578   
     axis -90 -7.62852e-016 -20   XYZ
    dof rx
    limits (-90.0 20.0)
  end
  begin
     id 11 
     name lowerback
     direction 0.0288145 0.999398 -0.0193241   
     length 1.92149   
     axis 0 0 0   XYZ
    dof rx ry rz
    limits (-20.0 45.0)
           (-30.0 30.0)
           (-30.0 30.0)
  end
  begin
     id 12 
     name upperback
     direction 0.0233784 0.998099 0.0570278   
     length 1.90435   
     axis 0 0 0   XYZ
    dof rx ry rz
    limits (-20.0 45.0)
           (-30.0 30.0)
           (-30.0 30.0)
  end
  begin
     id 13 
     name thorax
     direction 0.0096694 0.997833 0.0650817   
     length 1.9111   
     axis 0 0 0   XYZ
    dof rx ry rz
    limits (-20.0 45.0)
           (-30.0 30.0)
           (-30.0 30.0)
  end
  begin
     id 14 
     name lowerneck
     direction 0.00516803 0.999916 0.0118722   
     length 1.74664   
     axis 0 0 0   XYZ
    dof rx ry rz
    limits (-20.0 45.0)
           (-30.0 30.0)
           (-30.0 30.0)
  end
  begin
     id 15 
     name upperneck
     direction -0.0510851 0.996117 -0.071696   
     length 1.68498   
     axis 0 0 0   XYZ
    dof rx ry rz
    limits (-20.0 45.0)
           (-30.0 30.0)
           (-30.0 30.0)
  end
  begin
     id 16
     name head
     direction -0.019188 0.999436 -0.0275702  
     length 1.83483  
     axis 0 0 0   XYZ
    dof rx ry rz
    limits (-20.0 45.0)
           (-30.0 30.0)
           (-30.0 30.0)
  end
  begin
     id 17 
     name lclavicle
     direction 0.967006 0.248456 -0.0562957  
     length 3.39395  
     axis 0 0 0   XYZ
    dof ry rz
    limits (-20.0 10.0)
           (0.0 20.0)
  end
  begin
     id 18 
     name lhumerus
     direction 1 -4.48962e-011 -5.62711e-019   
     length 5.24318   
     axis 180 -30 -90   XYZ
    dof rx ry rz
    limits (-60.0 90.0)
           (-90.0 90.0)
           (-90.0 90.0)
  end
  begin
     id 19
     name lradius
     direction 1 -4.48966e-011 7.90625e-027   
     length 2.98999   
     axis 180 -30 -90   XYZ
    dof rx
    limits (-10.0 170.0)
  end
  begin
     id 20
     name lwrist
     direction 1 -4.48959e-011 1.61068e-026   
     length 1.49499   
     axis -9.31229e-015 90 90   XYZ
    dof ry
    limits (-180.0 0.0)
 end
  begin
     id 21 
     name lhand
     direction 1 -4.49017e-011 3.22136e-026   
     length 0.726745   
     axis -2.0555e-014 90 90   XYZ
    dof rx rz
    limits (-90.0 90.0)
           (-45.0 45.0)
  end
  begin
     id 22 
     name lfingers
     direction 1 -4.4898e-011 6.44272e-026   
     length 0.58592   
     axis -4.11101e-014 90 90   XYZ
    dof rx
    limits (0.0 90.0)
  end
  begin
     id 23
     name lthumb
     direction 0.707107 -6.34922e-011 0.707107   
     length 0.841268   
     axis -90 45 2.85299e-015   XYZ
    dof rx rz
    limits (-45.0 45.0)
           (-45.0 45.0)
  end
  begin
     id 24 
     name rclavicle
     direction -0.972232 0.230238 0.0419005   
     length 3.40416  
     axis 0 0 0   XYZ 
    dof ry rz
    limits (-10.0 20.0)
           (-20.0 0.0)
  end
  begin
     id 25 
     name rhumerus
     direction -1 -4.48976e-011 2.48487e-027  
     length 5.37045   
     axis 180 30 90   XYZ
    dof rx ry rz
    limits (-90.0 60.0)
           (-90.0 90.0)
           (-90.0 90.0)
  end
  begin
     id 26 
     name rradius
     direction -1 -4.48942e-011 7.87951e-027   
     length 2.92792   
     axis 180 30 90   XYZ
    dof rx
    limits (-10.0 170.0)
  end
  begin
     id 27 
     name rwrist
     direction -1 -4.48969e-011 1.61068e-026   
     length 1.46396   
     axis -9.31229e-015 -90 -90   XYZ
    dof ry
    limits (-180.0 0.0)
  end
  begin
     id 28
     name rhand
     direction -1 -4.49043e-011 3.22136e-026   
     length 0.784497   
     axis -2.0555e-014 -90 -90   XYZ
    dof rx rz
    limits (-90.0 90.0)
           (-45.0 45.0)
  end
  begin
     id 29
     name rfingers
     direction -1 -4.48823e-011 6.44272e-026   
     length 0.632482   
     axis -4.11101e-014 -90 -90   XYZ
    dof rx
    limits (0.0 90.0)
  end
  begin
     id 30
     name rthumb
     direction -0.707107 -6.34923e-011 0.707107   
     length 0.908121   
     axis -90 -45 -2.85299e-015   XYZ
    dof rx rz
    limits (-45.0 45.0)
           (-45.0 45.0)
  end
:hierarchy
  begin
    root lhipjoint rhipjoint lowerback
    lhipjoint lfemur
    lfemur ltibia
    ltibia lfoot
    lfoot ltoes
    rhipjoint rfemur
    rfemur rtibia
    rtibia rfoot
    rfoot rtoes
    lowerback upperback
    upperback thorax
    thorax lowerneck lclavicle rclavicle
    lowerneck upperneck
    upperneck head
    lclavicle lhumerus
    lhumerus lradius
    lradius lwrist
    lwrist lhand lthumb
    lhand lfingers
    rclavicle rhumerus
    rhumerus rradius
    rradius rwrist
    rwrist rhand rthumb
    rhand rfingers
  end

#!OML:ASF F:\VICON\USERDATA\INSTALL\rory3\rory3.ASF
:FULLY-SPECIFIED
:DEGREES
1997
root 0.91296 18.2797 0.0847171 29.1914 9.50798 3.36126
lowerback 11.7162 1.335 8.63601
upperback -1.63065 3.91479 9.83458
thorax -8.57101 1.77168 5.04495
lowerneck 6.39727 -6.34992 6.5263
upperneck -12.8731 -10.7733 -18.6687
head -6.34594 -4.42301 -6.21297
rclavicle 5.56597e-014 3.49861e-014
rhumerus -27.0465 -2.67672 -72.2894
rradius 138.843
rwrist 30.4772
rhand 19.6091 3.99342
rfingers 7.12502
rthumb 44.1708 -19.8255
lclavicle 5.56597e-014 3.49861e-014
lhumerus -32.1019 -11.4647 93.5311
lradius 119.554
lwrist -22.4605
lhand -8.89181 18.6138
lfingers 7.12502
lthumb 17.0506 47.8855
rfemur -36.2194 24.0961 -1.20371
rtibia 13.9984
rfoot -41.5858 -30.6356
rtoes 47.669
lfemur -31.9545 -26.8982 -7.83652
ltibia 4.18442e-014
lfoot 9.13677 22.5414
ltoes -15.1441
1998
root 0.919157 18.2731 0.0649074 29.2213 9.74074 3.56734
lowerback 11.9429 1.38317 8.94515
upperback -1.53322 4.07312 10.0992
thorax -8.60603 1.84163 5.13398
lowerneck 6.24951 -6.40934 6.54066
upperneck -12.7843 -10.8947 -18.9493
head -6.32683 -4.47832 -6.30086
rclavicle -2.70347e-014 3.18055e-015
rhumerus -26.9672 -2.92877 -71.9036
rradius 138.906
rwrist 30.18
rhand 19.1948 3.90317
rfingers 7.12502
rthumb 43.7843 -20.0597
lclavicle -2.70347e-014 3.18055e-015
lhumerus -32.0607 -11.313 93.6391
lradius 119.543
lwrist -22.4988
lhand -9.13698 18.5569
lfingers 7.12502
lthumb 16.8146 47.8489
rfemur -36.2849 23.8747 -1.27751
rtibia 14.2551
rfoot -41.7923 -30.7235
rtoes 47.494
lfemur -32.1682 -27.2169 -7.82848
ltibia -1.90833e-014
lfoot 9.37692 22.5148
ltoes -15.7269
1999
root 0.923936 18.2633 0.0462404 29.3338 10.0484 3.7083
lowerback 12.0276 1.39531 9.32732
upperback -1.4526 4.17717 10.3885
thorax -8.57322 1.88428 5.22317
lowerneck 6.18042 -6.44711 6.5537
upperneck -12.7527 -10.9958 -19.2414
head -6.33813 -4.51605 -6.39348
rclavicle -1.59028e-015 4.13472e-014
rhumerus -26.8472 -3.12916 -71.5575
rradius 139.001
rwrist 30.0824
rhand 18.9581 3.87098
rfingers 7.12502
rthumb 43.5633 -20.1729
lclavicle -1.59028e-015 4.13472e-014
lhumerus -32.0481 -10.9723 93.8179
lradius 119.552
lwrist -22.5212
lhand -9.23116 18.6636
lfingers 7.12502
lthumb 16.7239 47.9632
rfemur -36.4136 23.5955 -1.25328
rtibia 14.4791
rfoot -41.825 -31.0527
rtoes 46.8958
lfemur -32.5168 -27.5306 -7.64588
ltibia -5.16592e-014
lfoot 9.52588 22.533
ltoes -15.6494
2000
root 0.930116 18.2567 0.03116 29.4282 10.3259 3.85321
lowerback 12.0781 1.39941 9.72026
upperback -1.33183 4.2579 10.6605
thorax -8.47251 1.91638 5.29157
lowerneck 6.06021 -6.4776 6.53591
upperneck -12.7425 -11.0857 -19.4776
head -6.34019 -4.55238 -6.46502
rclavicle -2.8625e-014 -1.90833e-014
rhumerus -26.6404 -3.30909 -71.2484
rradius 139.088
rwrist 30.0958
rhand 18.8916 3.82564
rfingers 7.12502
rthumb 43.5011 -20.2408
lclavicle -2.8625e-014 -1.90833e-014
lhumerus -32.0297 -10.6232 93.9868
lradius 119.633
lwrist -22.5279
lhand -9.34566 18.8118
lfingers 7.12502
lthumb 16.6137 48.1208
rfemur -36.5357 23.4082 -1.30871
rtibia 14.7268
rfoot -42.105 -31.0688
rtoes 46.6813
lfemur -32.7972 -27.835 -7.51034
ltibia -5.83433e-014
lfoot 9.5816 22.519
ltoes -15.5302
2001
root 0.934163 18.2555 0.016534 29.4986 10.5374 4.10203
lowerback 12.2159 1.40544 10.0109
upperback -1.21414 4.33651 10.8771
thorax -8.42668 1.94944 5.35453
lowerneck 5.92229 -6.52329 6.54501
upperneck -12.7005 -11.192 -19.7326
head -6.33441 -4.59975 -6.54603
rclavicle -4.92986e-014 0
rhumerus -26.4674 -3.46391 -70.9849
rradius 139.19
rwrist 30.1384
rhand 18.8514 3.756
rfingers 7.12502
rthumb 43.4637 -20.324
lclavicle -4.92986e-014 0
lhumerus -32.0508 -10.2593 94.0286
lradius 119.677
lwrist -22.5166
lhand -9.38608 18.1852
lfingers 7.12502
lthumb 16.5748 47.4973
rfemur -36.6796 23.3699 -1.56737
rtibia 15.0561
rfoot -42.7897 -30.8462
rtoes 46.9957
lfemur -33.0201 -28.1481 -7.52857
ltibia -1.46728e-014
lfoot 9.85562 22.3573
ltoes -16.2113
2002
root 0.935989 18.2532 0.000815806 29.6456 10.7819 4.40686
lowerback 12.3179 1.3982 10.2664
upperback -1.15061 4.39338 11.0685
thorax -8.41962 1.97199 5.41561
lowerneck 5.80015 -6.56198 6.57687
upperneck -12.5879 -11.2787 -20.0263
head -6.31091 -4.63918 -6.64475
rclavicle 1.43125e-014 1.20861e-013
rhumerus -26.329 -3.62645 -70.7365
rradius 139.266
rwrist 30.1772
rhand 18.8402 3.64759
rfingers 7.12502
rthumb 43.4532 -20.4362
lclavicle 1.43125e-014 1.20861e-013
lhumerus -32.0989 -9.88374 94.0555
lradius 119.721
lwrist -22.5971
lhand -9.30919 17.7223
lfingers 7.12502
lthumb 16.6488 47.0282
rfemur -36.9016 23.4227 -1.96135
rtibia 15.4203
rfoot -44.0285 -30.2213
rtoes 47.7895
lfemur -33.3694 -28.491 -7.5188
ltibia -5.23549e-014
lfoot 10.3418 22.0599
ltoes -17.7349
2003
root 0.932731 18.2487 -0.0168133 29.9444 10.9991 4.70787
lowerback 12.2982 1.40426 10.4603
upperback -1.12286 4.44112 11.2447
thorax -8.38407 1.99339 5.49826
lowerneck 5.70952 -6.59239 6.59879
upperneck -12.4778 -11.3492 -20.2911
head -6.28949 -4.67032 -6.73279
rclavicle 2.54444e-014 3.18055e-015
rhumerus -26.1594 -3.78539 -70.4899
rradius 139.336
rwrist 30.2337
rhand 18.8343 3.58277
rfingers 7.12502
rthumb 43.4476 -20.5031
lclavicle 2.54444e-014 3.18055e-015
lhumerus -32.1323 -9.64413 94.1207
lradius 119.847
lwrist -22.7949
lhand -9.17064 18.0579
lfingers 7.12502
lthumb 16.7822 47.3526
rfemur -37.3986 23.7355 -2.61851
rtibia 15.7851
rfoot -45.5005 -29.781
rtoes 48.5562
lfemur -33.9139 -28.7514 -7.39934
ltibia 1.4064e-014
lfoot 10.7227 21.8107
ltoes -18.7616
2004
root 0.929081 18.2441 -0.0360539 30.2199 11.1066 4.96716
lowerback 12.3406 1.44175 10.6532
upperback -1.05031 4.52907 11.3792
thorax -8.33103 2.03294 5.52449
lowerneck 5.63224 -6.61686 6.63751
upperneck -12.4694 -11.4127 -20.4653
head -6.29595 -4.69831 -6.79507
rclavicle -1.27222e-014 6.36111e-014
rhumerus -25.9548 -4.01559 -70.309
rradius 139.404
rwrist 30.2998
rhand 18.9532 3.62476
rfingers 7.12502
rthumb 43.5587 -20.4207
lclavicle -1.27222e-014 6.36111e-014
lhumerus -32.1496 -9.59263 94.2522
lradius 119.955
lwrist -22.7495
lhand -9.5654 18.4965
lfingers 7.12502
lthumb 16.4021 47.823
rfemur -37.9427 24.1832 -3.35601
rtibia 16.0931
rfoot -46.9372 -29.2995
rtoes 49.2756
lfemur -34.3888 -28.9032 -7.32061
ltibia -2.25621e-014
lfoot 10.8886 21.6882
ltoes -18.9974
2005
root 0.926418 18.2428 -0.0545753 30.337 11.0733 5.15239
lowerback 12.6054 1.51755 10.8453
upperback -0.943567 4.69872 11.4675
thorax -8.36549 2.1073 5.47903
lowerneck 5.524 -6.63218 6.77007
upperneck -12.4646 -11.4555 -20.6507
head -6.30064 -4.72194 -6.88091
rclavicle 6.04305e-014 9.22361e-014
rhumerus -25.8549 -4.33216 -70.255
rradius 139.383
rwrist 30.3992
rhand 18.9918 3.74026
rfingers 7.12502
rthumb 43.5948 -20.2921
lclavicle 6.04305e-014 9.22361e-014
lhumerus -32.2429 -9.56585 94.3733
lradius 120.026
lwrist -22.6071
lhand -10.1095 18.5054
lfingers 7.12502
lthumb 15.8782 47.8744
rfemur -38.3416 24.7564 -4.04218
rtibia 16.2977
rfoot -48.1677 -28.9231
rtoes 49.8396
lfemur -34.6234 -28.9499 -7.37275
ltibia 3.56818e-014
lfoot 10.9179 21.6474
ltoes -18.8844
2006
root 0.923996 18.2417 -0.06913 30.4534 11.0627 5.36252
lowerback 12.862 1.55918 11.0288
upperback -0.881444 4.82771 11.5406
thorax -8.44257 2.16048 5.43009
lowerneck 5.53642 -6.6402 6.86188
upperneck -12.4998 -11.4895 -20.7883
head -6.33339 -4.73258 -6.94131
rclavicle -2.8625e-014 -6.99722e-014
rhumerus -25.8805 -4.5388 -70.2336
rradius 139.282
rwrist 30.4558
rhand 18.7072 3.72409
rfingers 7.12502
rthumb 43.3289 -20.4046
lclavicle -2.8625e-014 -6.99722e-014
lhumerus -32.3687 -9.23597 94.3526
lradius 120.024
lwrist -22.6687
lhand -9.93933 17.8284
lfingers 7.12502
lthumb 16.0421 47.1843
rfemur -38.6987 25.5045 -4.85498
rtibia 16.4248
rfoot -49.6957 -28.4244
rtoes 50.5584
lfemur -34.8445 -29.0387 -7.44814
ltibia -3.27001e-014
lfoot 10.9848 21.5462
ltoes -19.1743
2007
root 0.919959 18.2397 -0.0843767 30.6828 11.0585 5.52685
lowerback 12.9803 1.58192 11.2244
upperback -0.798558 4.90376 11.6211
thorax -8.41431 2.19104 5.39483
lowerneck 5.43502 -6.60473 6.9379
upperneck -12.5495 -11.4602 -20.8823
head -6.33584 -4.72077 -6.99453
rclavicle -2.54444e-014 6.36111e-015
rhumerus -25.7535 -4.74806 -70.2784
rradius 139.098
rwrist 30.4887
rhand 18.3686 3.85769
rfingers 7.12502
rthumb 43.0124 -20.3839
lclavicle -2.54444e-014 6.36111e-015
lhumerus -32.4138 -8.86292 94.3118
lradius 119.998
lwrist -22.6733
lhand -9.85627 17.2413
lfingers 7.12502
lthumb 16.1221 46.5907
rfemur -39.1919 26.2389 -5.70192
rtibia 16.5108
rfoot -51.1855 -27.9146
rtoes 51.2262
lfemur -35.1836 -29.0731 -7.39977
ltibia 3.28989e-014
lfoot 11.0667 21.3881
ltoes -19.3236
2008
root 0.914568 18.2381 -0.100913 30.9489 10.9108 5.71096
lowerback 13.0753 1.62506 11.303
upperback -0.673035 4.97303 11.6759
thorax -8.32983 2.22477 5.39459
lowerneck 5.24543 -6.53145 6.96791
upperneck -12.6137 -11.389 -20.9952
head -6.31854 -4.6899 -7.05394
rclavicle -4.13472e-014 -2.8625e-014
rhumerus -25.5089 -4.98632 -70.4253
rradius 138.877
rwrist 30.5806
rhand 18.26 4.0909
rfingers 7.12502
rthumb 42.9108 -20.1865
lclavicle -4.13472e-014 -2.8625e-014
lhumerus -32.4885 -8.5689 94.3738
lradius 120.065
lwrist -22.6668
lhand -9.92866 17.2807
lfingers 7.12502
lthumb 16.0523 46.6357
rfemur -39.7943 27.0131 -6.70328
rtibia 16.5706
rfoot -52.3833 -27.8884
rtoes 51.4237
lfemur -35.5013 -28.9952 -7.4447
ltibia 3.74709e-014
lfoot 11.2268 21.1838
ltoes -19.8484
